# xmcd
#
# Track frame offsets:
#	150
#	14872
#	29889
#	49007
#	69658
#	79918
#	91434
#	101395
#	110945
#	120665
#	130728
#	139849
#	152195
#	163184
#	177737
#
# Disc length: 2550 seconds
#
# Revision: 1
# Processed by: cddbd v1.5.1PL0 Copyright (c) Steve Scherf et al.
# Submitted via: audiograbber 1.82.02
#
DISCID=e209f40f
DTITLE=Maybelle Carter - Vocal and Auto Harp
DYEAR=1900
DGENRE=Country
TTITLE0=Keep On The Sunny Side
TTITLE1=Wildwood Flower
TTITLE2=I'm Thinking Of My Blue Eyes
TTITLE3=Will The Circle Be Unbroken
TTITLE4=Bonapartes Retreat
TTITLE5=Faded Coat Of Blue
TTITLE6=Foggy Mountain Top
TTITLE7=The Dying Soldier
TTITLE8=Barbara Allen
TTITLE9=Mokingbird Hill
TTITLE10=Bully Of The Town
TTITLE11=Lovers Farewell
TTITLE12=Working On The Railroad
TTITLE13=Mining Camp Blues
TTITLE14=Hello Stranger
EXTD=
EXTT0=
EXTT1=
EXTT2=
EXTT3=
EXTT4=
EXTT5=
EXTT6=
EXTT7=
EXTT8=
EXTT9=
EXTT10=
EXTT11=
EXTT12=
EXTT13=
EXTT14=
PLAYORDER=
